<svg width="38" height="38" viewBox="0 0 38 38" fill="none" xmlns="http://www.w3.org/2000/svg">
<path d="M4.22222 38C3.06111 38 2.06713 37.5866 1.24028 36.7597C0.413426 35.9329 0 34.9389 0 33.7778V4.22222C0 3.06111 0.413426 2.06713 1.24028 1.24028C2.06713 0.413426 3.06111 0 4.22222 0H27.4444L38 10.5556V33.7778C38 34.9389 37.5866 35.9329 36.7597 36.7597C35.9329 37.5866 34.9389 38 33.7778 38H4.22222ZM4.22222 33.7778H33.7778V12.6667H25.3333V4.22222H4.22222V33.7778ZM8.44444 29.5556H29.5556V25.3333H8.44444V29.5556ZM8.44444 12.6667H19V8.44444H8.44444V12.6667ZM8.44444 21.1111H29.5556V16.8889H8.44444V21.1111Z" fill="#718F2D"/>
</svg>
