<svg width="42" height="38" viewBox="0 0 42 38" fill="none" xmlns="http://www.w3.org/2000/svg">
<path d="M21 38C20.37 38 19.7662 37.8856 19.1887 37.6569C18.6112 37.4282 18.095 37.0852 17.64 36.6278L3.57 22.4306C2.345 21.1991 1.44375 19.7917 0.86625 18.2083C0.28875 16.625 0 14.9713 0 13.2472C0 9.62315 1.1725 6.50926 3.5175 3.90556C5.8625 1.30185 8.785 0 12.285 0C13.965 0 15.5487 0.334259 17.0362 1.00278C18.5237 1.6713 19.845 2.6037 21 3.8C22.12 2.6037 23.4237 1.6713 24.9112 1.00278C26.3987 0.334259 27.9825 0 29.6625 0C33.1625 0 36.0937 1.30185 38.4562 3.90556C40.8187 6.50926 42 9.60556 42 13.1944C42 14.9185 41.7025 16.5722 41.1075 18.1556C40.5125 19.7389 39.62 21.1463 38.43 22.3778L24.3075 36.6278C23.8525 37.0852 23.345 37.4282 22.785 37.6569C22.225 37.8856 21.63 38 21 38ZM23.1 10.5556C23.45 10.5556 23.7825 10.6435 24.0975 10.8194C24.4125 10.9954 24.6575 11.2241 24.8325 11.5056L28.4025 16.8889H37.1175C37.3625 16.2907 37.5462 15.6838 37.6687 15.0681C37.7912 14.4523 37.8525 13.8278 37.8525 13.1944C37.7825 10.7667 36.9775 8.68194 35.4375 6.94028C33.8975 5.19861 31.9725 4.32778 29.6625 4.32778C28.5775 4.32778 27.5362 4.53889 26.5387 4.96111C25.5412 5.38333 24.675 5.99907 23.94 6.80833L22.5225 8.33889C22.3475 8.55 22.12 8.71713 21.84 8.84028C21.56 8.96343 21.28 9.025 21 9.025C20.72 9.025 20.44 8.96343 20.16 8.84028C19.88 8.71713 19.635 8.55 19.425 8.33889L18.0075 6.80833C17.2725 5.99907 16.415 5.36574 15.435 4.90833C14.455 4.45093 13.405 4.22222 12.285 4.22222C9.975 4.22222 8.05 5.11065 6.51 6.8875C4.97 8.66435 4.2 10.7667 4.2 13.1944C4.2 13.8278 4.2525 14.4523 4.3575 15.0681C4.4625 15.6838 4.6375 16.2907 4.8825 16.8889H14.7C15.05 16.8889 15.3825 16.9769 15.6975 17.1528C16.0125 17.3287 16.2575 17.5574 16.4325 17.8389L18.27 20.5833L21.105 12.0333C21.245 11.6111 21.4987 11.2593 21.8662 10.9778C22.2337 10.6963 22.645 10.5556 23.1 10.5556ZM23.73 17.4167L20.895 25.9667C20.755 26.3889 20.4925 26.7407 20.1075 27.0222C19.7225 27.3037 19.3025 27.4444 18.8475 27.4444C18.4975 27.4444 18.165 27.3565 17.85 27.1806C17.535 27.0046 17.29 26.7759 17.115 26.4944L13.545 21.1111H8.19L20.6325 33.6194C20.7025 33.6898 20.7637 33.7338 20.8162 33.7514C20.8687 33.769 20.93 33.7778 21 33.7778C21.07 33.7778 21.1313 33.769 21.1838 33.7514C21.2363 33.7338 21.2975 33.6898 21.3675 33.6194L33.7575 21.1111H27.3C26.95 21.1111 26.6175 21.0231 26.3025 20.8472C25.9875 20.6713 25.725 20.4426 25.515 20.1611L23.73 17.4167Z" fill="#718F2D"/>
</svg>
