<svg width="217" height="46" viewBox="0 0 217 46" fill="none" xmlns="http://www.w3.org/2000/svg">
<path d="M27.5197 12.4904C26.7353 9.58204 27.4954 6.35097 29.804 4.06997C32.1126 1.78697 35.3799 1.03533 38.3209 1.81103C39.1053 4.71939 38.3452 7.95247 36.0386 10.2335C33.73 12.5165 30.4607 13.2681 27.5197 12.4904ZM26.5266 12.6908C25.9793 10.6103 26.1556 8.43753 26.9644 6.5053C26.5448 5.62337 25.9651 4.79756 25.2294 4.06997C22.9187 1.78697 19.6514 1.03533 16.7105 1.81103C15.9261 4.71939 16.6861 7.95247 18.9927 10.2335C21.0459 12.2639 23.8592 13.0837 26.5245 12.6908H26.5266ZM19.0474 31.6744C18.8225 30.9047 18.7008 30.0909 18.7008 29.2491C18.7008 25.2764 21.3885 21.9231 25.0632 20.8728L21.2831 17.1346L17.128 13.0256L15.0484 10.9691L8.81584 17.1346L2.58121 23.2981C-0.860403 26.7035 -0.860403 32.2236 2.58121 35.6271C6.02485 39.0325 11.6068 39.0325 15.0484 35.6271L19.0474 31.6744ZM52.4501 23.2981L46.2175 17.1346L39.9829 10.9691L37.9054 13.0256L45.727 20.7605L50.3706 25.3546H50.3726C51.5198 26.489 51.5198 28.3291 50.3726 29.4636C49.2254 30.598 47.3647 30.598 46.2175 29.4636L39.9849 23.3001L40.064 23.2199C40.0376 23.2459 40.0092 23.272 39.9829 23.2981L33.7503 17.1346L29.9702 20.8728C33.6469 21.9231 36.3325 25.2764 36.3325 29.2491C36.3325 30.0909 36.2109 30.9047 35.9859 31.6744L39.9829 35.6271C43.4265 39.0325 49.0085 39.0325 52.4501 35.6271C55.8938 32.2236 55.8938 26.7035 52.4501 23.2981ZM42.9279 41.5781C42.9279 43.1836 41.6125 44.4844 39.989 44.4844C38.3655 44.4844 37.05 43.1836 37.05 41.5781C37.05 41.1231 37.1595 40.6962 37.3459 40.3113L30.8904 33.9293C29.9357 34.5928 28.7703 34.9836 27.5136 34.9836C26.257 34.9836 25.0936 34.5928 24.1389 33.9273L17.6874 40.3073C17.8759 40.6921 17.9854 41.1211 17.9854 41.5781C17.9854 43.1836 16.6699 44.4844 15.0464 44.4844C13.4229 44.4844 12.1075 43.1836 12.1075 41.5781C12.1075 39.9726 13.4229 38.6717 15.0464 38.6717C15.466 38.6717 15.8653 38.7599 16.226 38.9163L22.7059 32.5082C22.031 31.5642 21.6378 30.4116 21.6378 29.1709C21.6378 25.9599 24.2686 23.3582 27.5136 23.3582C30.7586 23.3582 33.3915 25.9599 33.3915 29.1709C33.3915 30.4136 32.9963 31.5662 32.3234 32.5102L38.8033 38.9183C39.1661 38.7599 39.5654 38.6717 39.9869 38.6717C41.6105 38.6717 42.9259 39.9726 42.9259 41.5781H42.9279ZM30.4546 29.2491C30.4546 27.6436 29.1392 26.3427 27.5157 26.3427C25.8921 26.3427 24.5787 27.6436 24.5787 29.2491C24.5787 29.664 24.6659 30.0589 24.826 30.4156C25.1057 31.047 25.6043 31.5602 26.2286 31.8628C26.6178 32.0492 27.0535 32.1555 27.5157 32.1555C27.9778 32.1555 28.4136 32.0512 28.8027 31.8628C29.427 31.5622 29.9276 31.047 30.2073 30.4156C30.3675 30.0589 30.4546 29.664 30.4546 29.2491Z" fill="url(#paint0_linear_448_19)"/>
<path d="M67.9913 15.25V4.43146H72.1444C72.8899 4.43146 73.5482 4.56216 74.1193 4.82355C74.7002 5.08493 75.1552 5.47217 75.4844 5.98527C75.8135 6.49836 75.9781 7.13247 75.9781 7.88759C75.9781 8.62334 75.8087 9.24777 75.4698 9.76086C75.1407 10.274 74.6857 10.666 74.1048 10.9371C73.5336 11.1985 72.8802 11.3292 72.1444 11.3292H70.2421V15.25H67.9913ZM70.2421 9.36878H72.1589C72.4784 9.36878 72.7543 9.30586 72.9867 9.18C73.219 9.05415 73.3981 8.87989 73.524 8.65723C73.6595 8.43456 73.7273 8.17802 73.7273 7.88759C73.7273 7.58748 73.6595 7.32609 73.524 7.10342C73.3981 6.88076 73.219 6.7065 72.9867 6.58065C72.7543 6.4548 72.4784 6.39187 72.1589 6.39187H70.2421V9.36878ZM82.7947 15.25V4.43146H85.0455V9.84799L84.4211 9.63017L88.7485 4.43146H91.5657L87.2819 9.60113L87.4125 8.00376L91.6528 15.25H89.0244L86.3815 10.6757L85.0455 12.2876V15.25H82.7947ZM98.137 15.25V4.43146H100.315L104.367 9.80443H103.35L107.286 4.43146H109.464V15.25H107.213V6.91465L108.113 7.11795L103.946 12.4909H103.655L99.6327 7.11795L100.388 6.91465V15.25H98.137ZM117.133 12.2295V10.3417H123.667V12.2295H117.133ZM131.332 15.25V4.43146H133.583V9.84799L132.958 9.63017L137.286 4.43146H140.103L135.819 9.60113L135.95 8.00376L140.19 15.25H137.561L134.919 10.6757L133.583 12.2876V15.25H131.332ZM151.375 15.4243C150.601 15.4243 149.879 15.2839 149.211 15.0031C148.553 14.7224 147.977 14.3303 147.483 13.8269C146.99 13.3235 146.602 12.7329 146.322 12.0553C146.051 11.3776 145.915 10.637 145.915 9.83347C145.915 9.02995 146.051 8.28935 146.322 7.61168C146.593 6.92433 146.975 6.33378 147.469 5.84005C147.963 5.33664 148.539 4.9494 149.197 4.67833C149.865 4.39758 150.591 4.25721 151.375 4.25721C152.159 4.25721 152.861 4.3879 153.481 4.64929C154.11 4.91068 154.642 5.25919 155.078 5.69484C155.514 6.13048 155.824 6.61453 156.007 7.14699L154.018 8.10541C153.834 7.58264 153.51 7.15183 153.045 6.81299C152.59 6.46448 152.033 6.29022 151.375 6.29022C150.736 6.29022 150.175 6.44028 149.691 6.74039C149.207 7.0405 148.829 7.45678 148.558 7.98924C148.297 8.51201 148.166 9.12676 148.166 9.83347C148.166 10.5402 148.297 11.1598 148.558 11.6922C148.829 12.2247 149.207 12.641 149.691 12.9411C150.175 13.2412 150.736 13.3912 151.375 13.3912C152.033 13.3912 152.59 13.2218 153.045 12.883C153.51 12.5345 153.834 12.0988 154.018 11.5761L156.007 12.5345C155.824 13.0669 155.514 13.551 155.078 13.9866C154.642 14.4223 154.11 14.7708 153.481 15.0322C152.861 15.2936 152.159 15.4243 151.375 15.4243ZM175.105 15.4243C174.253 15.4243 173.494 15.2452 172.826 14.887C172.158 14.5288 171.63 14.0399 171.243 13.4203C170.865 12.791 170.676 12.0795 170.676 11.2856V4.43146H172.927V11.1404C172.927 11.5664 173.019 11.9536 173.203 12.3021C173.397 12.641 173.658 12.9072 173.987 13.1008C174.316 13.2944 174.689 13.3912 175.105 13.3912C175.531 13.3912 175.904 13.2944 176.224 13.1008C176.553 12.9072 176.809 12.641 176.993 12.3021C177.187 11.9536 177.284 11.5664 177.284 11.1404V4.43146H179.534V11.2856C179.534 12.0795 179.341 12.791 178.954 13.4203C178.576 14.0399 178.053 14.5288 177.385 14.887C176.717 15.2452 175.957 15.4243 175.105 15.4243ZM191.887 15.4243C191.112 15.4243 190.391 15.2839 189.723 15.0031C189.055 14.7224 188.47 14.3303 187.966 13.8269C187.463 13.3235 187.071 12.7329 186.79 12.0553C186.509 11.3776 186.369 10.637 186.369 9.83347C186.369 9.02995 186.504 8.28935 186.775 7.61168C187.046 6.92433 187.429 6.33378 187.923 5.84005C188.416 5.33664 188.992 4.9494 189.651 4.67833C190.319 4.39758 191.045 4.25721 191.829 4.25721C192.613 4.25721 193.315 4.3879 193.935 4.64929C194.564 4.91068 195.096 5.25919 195.532 5.69484C195.968 6.13048 196.277 6.61453 196.461 7.14699L194.472 8.10541C194.288 7.58264 193.964 7.15183 193.499 6.81299C193.044 6.46448 192.487 6.29022 191.829 6.29022C191.19 6.29022 190.628 6.44028 190.144 6.74039C189.66 7.0405 189.283 7.45678 189.012 7.98924C188.75 8.51201 188.62 9.12676 188.62 9.83347C188.62 10.5402 188.76 11.1598 189.041 11.6922C189.322 12.2247 189.704 12.641 190.188 12.9411C190.682 13.2412 191.248 13.3912 191.887 13.3912C192.381 13.3912 192.841 13.2993 193.267 13.1153C193.702 12.9217 194.051 12.6458 194.312 12.2876C194.583 11.9294 194.719 11.4986 194.719 10.9952V10.0949L195.75 10.9662H191.829V9.07835H196.97V10.2256C196.97 11.1065 196.824 11.8762 196.534 12.5345C196.243 13.1831 195.851 13.7252 195.358 14.1609C194.874 14.5869 194.327 14.9063 193.717 15.1193C193.116 15.3226 192.507 15.4243 191.887 15.4243ZM203.732 15.25V4.43146H205.911L209.962 9.80443H208.946L212.881 4.43146H215.059V15.25H212.808V6.91465L213.709 7.11795L209.541 12.4909H209.251L205.228 7.11795L205.983 6.91465V15.25H203.732Z" fill="url(#paint1_linear_448_19)"/>
<path d="M68.6302 40.75V22.7191H72.3816V30.5123H79.4003V22.7191H83.1517V40.75H79.4003V33.7797H72.3816V40.75H68.6302ZM86.3567 40.75V22.7191H98.4821V25.9865H90.1081V30.0767H97.9981V33.344H90.1081V37.4827H98.4821V40.75H86.3567ZM100.609 40.75V22.7191H107.506C108.749 22.7191 109.846 22.9369 110.798 23.3726C111.766 23.8082 112.524 24.4536 113.073 25.3088C113.622 26.1639 113.896 27.2208 113.896 28.4793C113.896 29.7056 113.614 30.7544 113.049 31.6256C112.484 32.4808 111.726 33.1262 110.774 33.5618L114.888 40.75H110.677L106.224 32.7874L108.644 34.2153H104.36V40.75H100.609ZM104.36 30.948H107.531C108.063 30.948 108.523 30.8431 108.91 30.6333C109.297 30.4236 109.596 30.1332 109.806 29.762C110.032 29.3909 110.145 28.9634 110.145 28.4793C110.145 27.9791 110.032 27.5435 109.806 27.1724C109.596 26.8013 109.297 26.5108 108.91 26.3011C108.523 26.0913 108.063 25.9865 107.531 25.9865H104.36V30.948ZM116.752 40.75V22.7191H124.375C125.618 22.7191 126.683 22.9289 127.57 23.3484C128.458 23.7679 129.135 24.373 129.603 25.1636C130.071 25.938 130.305 26.8819 130.305 27.9953C130.305 28.7859 130.087 29.5442 129.652 30.2703C129.216 30.9802 128.498 31.5772 127.498 32.0613V30.2219C128.45 30.593 129.184 31.0367 129.7 31.553C130.216 32.0694 130.571 32.6341 130.765 33.2472C130.959 33.8442 131.055 34.4735 131.055 35.135C131.055 36.9099 130.466 38.2894 129.289 39.2736C128.111 40.2579 126.473 40.75 124.375 40.75H116.752ZM120.503 37.4827H124.811C125.569 37.4827 126.175 37.2648 126.626 36.8292C127.078 36.3935 127.304 35.8288 127.304 35.135C127.304 34.4251 127.078 33.8523 126.626 33.4166C126.175 32.981 125.569 32.7632 124.811 32.7632H120.503V37.4827ZM120.503 29.4958H124.642C125.223 29.4958 125.682 29.3345 126.021 29.0118C126.376 28.6729 126.554 28.2292 126.554 27.6806C126.554 27.132 126.376 26.6964 126.021 26.3737C125.682 26.0349 125.223 25.8654 124.642 25.8654H120.503V29.4958ZM132.131 40.75L138.23 22.7191H143.215L149.314 40.75H145.224L144.014 37.0712H137.407L136.197 40.75H132.131ZM138.448 33.8039H142.973L140.214 25.2846H141.231L138.448 33.8039ZM159.023 41.0404C157.732 41.0404 156.53 40.8065 155.417 40.3386C154.32 39.8706 153.36 39.2172 152.537 38.3782C151.714 37.5391 151.069 36.5549 150.601 35.4254C150.149 34.296 149.923 33.0617 149.923 31.7225C149.923 30.3832 150.149 29.1489 150.601 28.0195C151.053 26.8739 151.69 25.8896 152.513 25.0668C153.336 24.2277 154.296 23.5823 155.393 23.1306C156.506 22.6626 157.716 22.4287 159.023 22.4287C160.33 22.4287 161.5 22.6465 162.533 23.0821C163.581 23.5178 164.469 24.0987 165.195 24.8247C165.921 25.5508 166.437 26.3576 166.744 27.245L163.428 28.8424C163.122 27.9711 162.581 27.2531 161.807 26.6883C161.048 26.1075 160.12 25.817 159.023 25.817C157.958 25.817 157.023 26.0671 156.216 26.5673C155.409 27.0675 154.78 27.7613 154.328 28.6487C153.892 29.52 153.675 30.5446 153.675 31.7225C153.675 32.9003 153.892 33.933 154.328 34.8204C154.78 35.7078 155.409 36.4016 156.216 36.9018C157.023 37.402 157.958 37.6521 159.023 37.6521C160.12 37.6521 161.048 37.3697 161.807 36.805C162.581 36.2241 163.122 35.498 163.428 34.6268L166.744 36.2241C166.437 37.1116 165.921 37.9183 165.195 38.6444C164.469 39.3705 163.581 39.9513 162.533 40.387C161.5 40.8226 160.33 41.0404 159.023 41.0404ZM167.82 40.75L173.919 22.7191H178.905L185.004 40.75H180.914L179.703 37.0712H173.096L171.886 40.75H167.82ZM174.137 33.8039H178.663L175.904 25.2846H176.92L174.137 33.8039ZM186.878 40.75V22.7191H193.775C195.018 22.7191 196.115 22.9369 197.067 23.3726C198.035 23.8082 198.793 24.4536 199.342 25.3088C199.89 26.1639 200.165 27.2208 200.165 28.4793C200.165 29.7056 199.882 30.7544 199.318 31.6256C198.753 32.4808 197.995 33.1262 197.043 33.5618L201.157 40.75H196.946L192.493 32.7874L194.913 34.2153H190.629V40.75H186.878ZM190.629 30.948H193.799C194.332 30.948 194.792 30.8431 195.179 30.6333C195.566 30.4236 195.865 30.1332 196.075 29.762C196.3 29.3909 196.413 28.9634 196.413 28.4793C196.413 27.9791 196.3 27.5435 196.075 27.1724C195.865 26.8013 195.566 26.5108 195.179 26.3011C194.792 26.0913 194.332 25.9865 193.799 25.9865H190.629V30.948ZM203.02 40.75V22.7191H215.146V25.9865H206.772V30.0767H214.662V33.344H206.772V37.4827H215.146V40.75H203.02Z" fill="#20270C"/>
<path d="M68.6302 40.75H68.444V40.9362H68.6302V40.75ZM68.6302 22.7191V22.5329H68.444V22.7191H68.6302ZM72.3816 22.7191H72.5678V22.5329H72.3816V22.7191ZM72.3816 30.5123H72.1954V30.6985H72.3816V30.5123ZM79.4003 30.5123V30.6985H79.5865V30.5123H79.4003ZM79.4003 22.7191V22.5329H79.2142V22.7191H79.4003ZM83.1517 22.7191H83.3379V22.5329H83.1517V22.7191ZM83.1517 40.75V40.9362H83.3379V40.75H83.1517ZM79.4003 40.75H79.2142V40.9362H79.4003V40.75ZM79.4003 33.7797H79.5865V33.5935H79.4003V33.7797ZM72.3816 33.7797V33.5935H72.1954V33.7797H72.3816ZM72.3816 40.75V40.9362H72.5678V40.75H72.3816ZM68.8164 40.75V22.7191H68.444V40.75H68.8164ZM68.6302 22.9053H72.3816V22.5329H68.6302V22.9053ZM72.1954 22.7191V30.5123H72.5678V22.7191H72.1954ZM72.3816 30.6985H79.4003V30.3262H72.3816V30.6985ZM79.5865 30.5123V22.7191H79.2142V30.5123H79.5865ZM79.4003 22.9053H83.1517V22.5329H79.4003V22.9053ZM82.9656 22.7191V40.75H83.3379V22.7191H82.9656ZM83.1517 40.5638H79.4003V40.9362H83.1517V40.5638ZM79.5865 40.75V33.7797H79.2142V40.75H79.5865ZM79.4003 33.5935H72.3816V33.9658H79.4003V33.5935ZM72.1954 33.7797V40.75H72.5678V33.7797H72.1954ZM72.3816 40.5638H68.6302V40.9362H72.3816V40.5638ZM86.3567 40.75H86.1705V40.9362H86.3567V40.75ZM86.3567 22.7191V22.5329H86.1705V22.7191H86.3567ZM98.4821 22.7191H98.6683V22.5329H98.4821V22.7191ZM98.4821 25.9865V26.1726H98.6683V25.9865H98.4821ZM90.1081 25.9865V25.8003H89.9219V25.9865H90.1081ZM90.1081 30.0767H89.9219V30.2629H90.1081V30.0767ZM97.9981 30.0767H98.1843V29.8905H97.9981V30.0767ZM97.9981 33.344V33.5302H98.1843V33.344H97.9981ZM90.1081 33.344V33.1579H89.9219V33.344H90.1081ZM90.1081 37.4827H89.9219V37.6688H90.1081V37.4827ZM98.4821 37.4827H98.6683V37.2965H98.4821V37.4827ZM98.4821 40.75V40.9362H98.6683V40.75H98.4821ZM86.5428 40.75V22.7191H86.1705V40.75H86.5428ZM86.3567 22.9053H98.4821V22.5329H86.3567V22.9053ZM98.296 22.7191V25.9865H98.6683V22.7191H98.296ZM98.4821 25.8003H90.1081V26.1726H98.4821V25.8003ZM89.9219 25.9865V30.0767H90.2942V25.9865H89.9219ZM90.1081 30.2629H97.9981V29.8905H90.1081V30.2629ZM97.8119 30.0767V33.344H98.1843V30.0767H97.8119ZM97.9981 33.1579H90.1081V33.5302H97.9981V33.1579ZM89.9219 33.344V37.4827H90.2942V33.344H89.9219ZM90.1081 37.6688H98.4821V37.2965H90.1081V37.6688ZM98.296 37.4827V40.75H98.6683V37.4827H98.296ZM98.4821 40.5638H86.3567V40.9362H98.4821V40.5638ZM100.609 40.75H100.423V40.9362H100.609V40.75ZM100.609 22.7191V22.5329H100.423V22.7191H100.609ZM110.798 23.3726L110.721 23.5419L110.722 23.5424L110.798 23.3726ZM113.073 25.3088L112.916 25.4093L113.073 25.3088ZM113.049 31.6256L113.204 31.7282L113.205 31.7269L113.049 31.6256ZM110.774 33.5618L110.696 33.3926L110.511 33.4774L110.612 33.6543L110.774 33.5618ZM114.888 40.75V40.9362H115.209L115.05 40.6575L114.888 40.75ZM110.677 40.75L110.515 40.8409L110.568 40.9362H110.677V40.75ZM106.224 32.7874L106.318 32.627L105.725 32.2769L106.061 32.8782L106.224 32.7874ZM108.644 34.2153V34.4015H109.326L108.739 34.055L108.644 34.2153ZM104.36 34.2153V34.0291H104.174V34.2153H104.36ZM104.36 40.75V40.9362H104.546V40.75H104.36ZM104.36 30.948H104.174V31.1341H104.36V30.948ZM108.91 30.6333L108.999 30.797L108.91 30.6333ZM109.806 29.762L109.647 29.6652L109.644 29.6704L109.806 29.762ZM109.806 27.1724L109.644 27.264L109.647 27.2692L109.806 27.1724ZM108.91 26.3011L108.822 26.4648V26.4648L108.91 26.3011ZM104.36 25.9865V25.8003H104.174V25.9865H104.36ZM100.795 40.75V22.7191H100.423V40.75H100.795ZM100.609 22.9053H107.506V22.5329H100.609V22.9053ZM107.506 22.9053C108.727 22.9053 109.797 23.1192 110.721 23.5419L110.875 23.2033C109.895 22.7546 108.771 22.5329 107.506 22.5329V22.9053ZM110.722 23.5424C111.658 23.9639 112.388 24.5859 112.916 25.4093L113.23 25.2083C112.661 24.3213 111.874 23.6526 110.874 23.2028L110.722 23.5424ZM112.916 25.4093C113.442 26.228 113.71 27.2479 113.71 28.4793H114.082C114.082 27.1937 113.802 26.0999 113.23 25.2083L112.916 25.4093ZM113.71 28.4793C113.71 29.6763 113.434 30.6884 112.893 31.5244L113.205 31.7269C113.793 30.8203 114.082 29.7349 114.082 28.4793H113.71ZM112.894 31.5231C112.348 32.3485 111.617 32.9711 110.696 33.3926L110.851 33.7311C111.834 33.2813 112.62 32.6131 113.204 31.7282L112.894 31.5231ZM110.612 33.6543L114.727 40.8425L115.05 40.6575L110.935 33.4694L110.612 33.6543ZM114.888 40.5638H110.677V40.9362H114.888V40.5638ZM110.839 40.6591L106.386 32.6965L106.061 32.8782L110.515 40.8409L110.839 40.6591ZM106.129 32.9477L108.549 34.3757L108.739 34.055L106.318 32.627L106.129 32.9477ZM108.644 34.0291H104.36V34.4015H108.644V34.0291ZM104.174 34.2153V40.75H104.546V34.2153H104.174ZM104.36 40.5638H100.609V40.9362H104.36V40.5638ZM104.36 31.1341H107.531V30.7618H104.36V31.1341ZM107.531 31.1341C108.088 31.1341 108.579 31.0243 108.999 30.797L108.822 30.4696C108.467 30.6619 108.039 30.7618 107.531 30.7618V31.1341ZM108.999 30.797C109.416 30.5712 109.74 30.2563 109.968 29.8537L109.644 29.6704C109.452 30.0101 109.179 30.276 108.822 30.4696L108.999 30.797ZM109.965 29.8588C110.21 29.4553 110.331 28.9935 110.331 28.4793H109.958C109.958 28.9332 109.853 29.3266 109.647 29.6652L109.965 29.8588ZM110.331 28.4793C110.331 27.9502 110.211 27.48 109.965 27.0756L109.647 27.2692C109.852 27.6069 109.958 28.008 109.958 28.4793H110.331ZM109.968 27.0808C109.74 26.6782 109.416 26.3632 108.999 26.1374L108.822 26.4648C109.179 26.6585 109.452 26.9244 109.644 27.264L109.968 27.0808ZM108.999 26.1374C108.579 25.9101 108.088 25.8003 107.531 25.8003V26.1726C108.039 26.1726 108.467 26.2726 108.822 26.4648L108.999 26.1374ZM107.531 25.8003H104.36V26.1726H107.531V25.8003ZM104.174 25.9865V30.948H104.546V25.9865H104.174ZM116.752 40.75H116.565V40.9362H116.752V40.75ZM116.752 22.7191V22.5329H116.565V22.7191H116.752ZM127.57 23.3484L127.491 23.5167V23.5167L127.57 23.3484ZM129.603 25.1636L129.443 25.2584L129.444 25.2598L129.603 25.1636ZM129.652 30.2703L129.81 30.3677L129.811 30.3661L129.652 30.2703ZM127.498 32.0613H127.311V32.3582L127.579 32.2289L127.498 32.0613ZM127.498 30.2219L127.565 30.0484L127.311 29.9495V30.2219H127.498ZM130.765 33.2472L130.587 33.3033L130.588 33.3046L130.765 33.2472ZM129.289 39.2736L129.408 39.4165L129.289 39.2736ZM120.503 37.4827H120.317V37.6688H120.503V37.4827ZM126.626 36.8292L126.756 36.9632L126.626 36.8292ZM126.626 33.4166L126.497 33.5506L126.626 33.4166ZM120.503 32.7632V32.577H120.317V32.7632H120.503ZM120.503 29.4958H120.317V29.682H120.503V29.4958ZM126.021 29.0118L126.15 29.1466L126.15 29.1464L126.021 29.0118ZM126.021 26.3737L125.889 26.5055L125.896 26.5114L126.021 26.3737ZM120.503 25.8654V25.6793H120.317V25.8654H120.503ZM116.938 40.75V22.7191H116.565V40.75H116.938ZM116.752 22.9053H124.375V22.5329H116.752V22.9053ZM124.375 22.9053C125.597 22.9053 126.634 23.1116 127.491 23.5167L127.65 23.1801C126.732 22.7461 125.638 22.5329 124.375 22.5329V22.9053ZM127.491 23.5167C128.347 23.9215 128.995 24.502 129.443 25.2584L129.763 25.0687C129.275 24.2439 128.568 23.6143 127.65 23.1801L127.491 23.5167ZM129.444 25.2598C129.891 25.9993 130.119 26.9081 130.119 27.9953H130.491C130.491 26.8558 130.252 25.8768 129.763 25.0673L129.444 25.2598ZM130.119 27.9953C130.119 28.7497 129.912 29.4752 129.492 30.1745L129.811 30.3661C130.263 29.6132 130.491 28.822 130.491 27.9953H130.119ZM129.493 30.1729C129.081 30.844 128.395 31.4201 127.416 31.8937L127.579 32.2289C128.601 31.7344 129.351 31.1165 129.81 30.3677L129.493 30.1729ZM127.684 32.0613V30.2219H127.311V32.0613H127.684ZM127.43 30.3954C128.367 30.7606 129.076 31.1923 129.568 31.6847L129.832 31.4214C129.291 30.8811 128.532 30.4254 127.565 30.0484L127.43 30.3954ZM129.568 31.6847C130.066 32.1828 130.404 32.7223 130.587 33.3033L130.942 33.1912C130.739 32.5458 130.366 31.956 129.832 31.4214L129.568 31.6847ZM130.588 33.3046C130.775 33.8821 130.869 34.4919 130.869 35.135H131.242C131.242 34.455 131.142 33.8063 130.942 33.1898L130.588 33.3046ZM130.869 35.135C130.869 36.8643 130.298 38.1877 129.169 39.1308L129.408 39.4165C130.635 38.3912 131.242 36.9554 131.242 35.135H130.869ZM129.169 39.1308C128.035 40.0783 126.445 40.5638 124.375 40.5638V40.9362C126.501 40.9362 128.186 40.4375 129.408 39.4165L129.169 39.1308ZM124.375 40.5638H116.752V40.9362H124.375V40.5638ZM120.503 37.6688H124.811V37.2965H120.503V37.6688ZM124.811 37.6688C125.607 37.6688 126.262 37.439 126.756 36.9632L126.497 36.6952C126.087 37.0906 125.532 37.2965 124.811 37.2965V37.6688ZM126.756 36.9632C127.248 36.4886 127.49 35.8735 127.49 35.135H127.118C127.118 35.7842 126.908 36.2985 126.497 36.6952L126.756 36.9632ZM127.49 35.135C127.49 34.3818 127.249 33.7581 126.756 33.2826L126.497 33.5506C126.908 33.9465 127.118 34.4684 127.118 35.135H127.49ZM126.756 33.2826C126.262 32.8068 125.607 32.577 124.811 32.577V32.9493C125.532 32.9493 126.087 33.1552 126.497 33.5506L126.756 33.2826ZM124.811 32.577H120.503V32.9493H124.811V32.577ZM120.317 32.7632V37.4827H120.689V32.7632H120.317ZM120.503 29.682H124.642V29.3096H120.503V29.682ZM124.642 29.682C125.258 29.682 125.768 29.5098 126.15 29.1466L125.893 28.877C125.596 29.1592 125.187 29.3096 124.642 29.3096V29.682ZM126.15 29.1464C126.546 28.7682 126.74 28.2735 126.74 27.6806H126.368C126.368 28.185 126.206 28.5777 125.893 28.8771L126.15 29.1464ZM126.74 27.6806C126.74 27.0879 126.546 26.5991 126.146 26.2359L125.896 26.5114C126.206 26.7936 126.368 27.1762 126.368 27.6806H126.74ZM126.153 26.242C125.772 25.8611 125.261 25.6793 124.642 25.6793V26.0516C125.184 26.0516 125.593 26.2086 125.89 26.5053L126.153 26.242ZM124.642 25.6793H120.503V26.0516H124.642V25.6793ZM120.317 25.8654V29.4958H120.689V25.8654H120.317ZM132.131 40.75L131.954 40.6903L131.871 40.9362H132.131V40.75ZM138.23 22.7191V22.5329H138.096L138.053 22.6595L138.23 22.7191ZM143.215 22.7191L143.392 22.6595L143.349 22.5329H143.215V22.7191ZM149.314 40.75V40.9362H149.574L149.491 40.6903L149.314 40.75ZM145.224 40.75L145.047 40.8082L145.089 40.9362H145.224V40.75ZM144.014 37.0712L144.191 37.013L144.149 36.885H144.014V37.0712ZM137.407 37.0712V36.885H137.272L137.23 37.013L137.407 37.0712ZM136.197 40.75V40.9362H136.331L136.374 40.8082L136.197 40.75ZM138.448 33.8039L138.271 33.7461L138.191 33.99H138.448V33.8039ZM142.973 33.8039V33.99H143.229L143.151 33.7465L142.973 33.8039ZM140.214 25.2846V25.0984H139.958L140.037 25.3419L140.214 25.2846ZM141.231 25.2846L141.408 25.3424L141.487 25.0984H141.231V25.2846ZM132.307 40.8097L138.406 22.7788L138.053 22.6595L131.954 40.6903L132.307 40.8097ZM138.23 22.9053H143.215V22.5329H138.23V22.9053ZM143.039 22.7788L149.138 40.8097L149.491 40.6903L143.392 22.6595L143.039 22.7788ZM149.314 40.5638H145.224V40.9362H149.314V40.5638ZM145.401 40.6918L144.191 37.013L143.837 37.1294L145.047 40.8082L145.401 40.6918ZM144.014 36.885H137.407V37.2574H144.014V36.885ZM137.23 37.013L136.02 40.6918L136.374 40.8082L137.584 37.1294L137.23 37.013ZM136.197 40.5638H132.131V40.9362H136.197V40.5638ZM138.448 33.99H142.973V33.6177H138.448V33.99ZM143.151 33.7465L140.391 25.2272L140.037 25.3419L142.796 33.8612L143.151 33.7465ZM140.214 25.4708H141.231V25.0984H140.214V25.4708ZM141.054 25.2268L138.271 33.7461L138.624 33.8617L141.408 25.3424L141.054 25.2268ZM155.417 40.3386L155.344 40.5098L155.345 40.5102L155.417 40.3386ZM152.537 38.3782L152.67 38.2478L152.537 38.3782ZM150.601 35.4254L150.428 35.4946L150.429 35.4967L150.601 35.4254ZM150.601 28.0195L150.774 28.0886L150.774 28.0878L150.601 28.0195ZM152.513 25.0668L152.644 25.1984L152.646 25.1971L152.513 25.0668ZM155.393 23.1306L155.464 23.3027L155.465 23.3022L155.393 23.1306ZM162.533 23.0821L162.46 23.2537L162.461 23.2541L162.533 23.0821ZM165.195 24.8247L165.327 24.6931L165.195 24.8247ZM166.744 27.245L166.825 27.4127L166.974 27.3408L166.92 27.1842L166.744 27.245ZM163.428 28.8424L163.253 28.9041L163.322 29.1004L163.509 29.0101L163.428 28.8424ZM161.807 26.6883L161.693 26.8362L161.697 26.8388L161.807 26.6883ZM156.216 26.5673L156.314 26.7255L156.216 26.5673ZM154.328 28.6487L154.162 28.5643L154.161 28.5655L154.328 28.6487ZM154.328 34.8204L154.161 34.9024L154.162 34.9048L154.328 34.8204ZM156.216 36.9018L156.314 36.7436L156.216 36.9018ZM161.807 36.805L161.918 36.9543L161.918 36.9539L161.807 36.805ZM163.428 34.6268L163.509 34.459L163.322 34.3688L163.253 34.565L163.428 34.6268ZM166.744 36.2241L166.92 36.2849L166.974 36.1283L166.825 36.0564L166.744 36.2241ZM165.195 38.6444L165.063 38.5127L165.195 38.6444ZM162.533 40.387L162.461 40.215L162.46 40.2154L162.533 40.387ZM159.023 40.8543C157.756 40.8543 156.578 40.6246 155.489 40.1669L155.345 40.5102C156.483 40.9883 157.709 41.2266 159.023 41.2266V40.8543ZM155.49 40.1673C154.415 39.7088 153.475 39.0691 152.67 38.2478L152.404 38.5085C153.244 39.3652 154.225 40.0325 155.344 40.5098L155.49 40.1673ZM152.67 38.2478C151.864 37.4265 151.232 36.4625 150.773 35.3542L150.429 35.4967C150.905 36.6473 151.564 37.6518 152.404 38.5085L152.67 38.2478ZM150.774 35.3563C150.332 34.251 150.109 33.0404 150.109 31.7225H149.737C149.737 33.083 149.967 34.341 150.428 35.4946L150.774 35.3563ZM150.109 31.7225C150.109 30.4045 150.332 29.194 150.774 28.0886L150.428 27.9503C149.967 29.1039 149.737 30.362 149.737 31.7225H150.109ZM150.774 28.0878C151.217 26.9645 151.841 26.0022 152.644 25.1984L152.381 24.9351C151.539 25.7771 150.888 26.7832 150.428 27.9512L150.774 28.0878ZM152.646 25.1971C153.451 24.3763 154.39 23.745 155.464 23.3027L155.322 22.9584C154.202 23.4197 153.221 24.0792 152.38 24.9364L152.646 25.1971ZM155.465 23.3022C156.554 22.8446 157.739 22.6149 159.023 22.6149V22.2425C157.694 22.2425 156.459 22.4806 155.321 22.9589L155.465 23.3022ZM159.023 22.6149C160.309 22.6149 161.454 22.8292 162.46 23.2537L162.605 22.9106C161.546 22.4638 160.351 22.2425 159.023 22.2425V22.6149ZM162.461 23.2541C163.49 23.6814 164.356 24.2493 165.063 24.9564L165.327 24.6931C164.582 23.948 163.673 23.3542 162.604 22.9102L162.461 23.2541ZM165.063 24.9564C165.771 25.6644 166.271 26.4474 166.568 27.3058L166.92 27.1842C166.603 26.2677 166.071 25.4372 165.327 24.6931L165.063 24.9564ZM166.663 27.0773L163.347 28.6746L163.509 29.0101L166.825 27.4127L166.663 27.0773ZM163.604 28.7806C163.284 27.8723 162.72 27.1239 161.916 26.5379L161.697 26.8388C162.442 27.3822 162.959 28.0698 163.253 28.9041L163.604 28.7806ZM161.92 26.5405C161.124 25.9312 160.155 25.6309 159.023 25.6309V26.0032C160.086 26.0032 160.972 26.2838 161.693 26.8361L161.92 26.5405ZM159.023 25.6309C157.928 25.6309 156.957 25.8885 156.118 26.4091L156.314 26.7255C157.088 26.2458 157.989 26.0032 159.023 26.0032V25.6309ZM156.118 26.4091C155.281 26.9281 154.628 27.6481 154.162 28.5643L154.494 28.7332C154.931 27.8745 155.537 27.2069 156.314 26.7255L156.118 26.4091ZM154.161 28.5655C153.71 29.4675 153.488 30.5217 153.488 31.7225H153.861C153.861 30.5675 154.074 29.5726 154.494 28.732L154.161 28.5655ZM153.488 31.7225C153.488 32.9234 153.711 33.985 154.161 34.9024L154.495 34.7383C154.074 33.8809 153.861 32.8773 153.861 31.7225H153.488ZM154.162 34.9048C154.628 35.821 155.281 36.541 156.118 37.06L156.314 36.7436C155.537 36.2622 154.931 35.5946 154.494 34.7359L154.162 34.9048ZM156.118 37.06C156.957 37.5806 157.928 37.8382 159.023 37.8382V37.4659C157.989 37.4659 157.088 37.2233 156.314 36.7436L156.118 37.06ZM159.023 37.8382C160.154 37.8382 161.122 37.5467 161.918 36.9543L161.695 36.6557C160.974 37.1928 160.087 37.4659 159.023 37.4659V37.8382ZM161.918 36.9539C162.721 36.3521 163.284 35.5963 163.604 34.6886L163.253 34.565C162.959 35.3998 162.441 36.0962 161.695 36.656L161.918 36.9539ZM163.347 34.7945L166.663 36.3918L166.825 36.0564L163.509 34.459L163.347 34.7945ZM166.568 36.1633C166.271 37.0217 165.771 37.8047 165.063 38.5127L165.327 38.776C166.071 38.0319 166.603 37.2014 166.92 36.2849L166.568 36.1633ZM165.063 38.5127C164.356 39.2198 163.49 39.7877 162.461 40.215L162.604 40.5589C163.673 40.1149 164.582 39.5211 165.327 38.776L165.063 38.5127ZM162.46 40.2154C161.454 40.6399 160.309 40.8543 159.023 40.8543V41.2266C160.351 41.2266 161.546 41.0053 162.605 40.5585L162.46 40.2154ZM167.82 40.75L167.644 40.6903L167.56 40.9362H167.82V40.75ZM173.919 22.7191V22.5329H173.785L173.743 22.6595L173.919 22.7191ZM178.905 22.7191L179.081 22.6595L179.038 22.5329H178.905V22.7191ZM185.004 40.75V40.9362H185.263L185.18 40.6903L185.004 40.75ZM180.914 40.75L180.737 40.8082L180.779 40.9362H180.914V40.75ZM179.703 37.0712L179.88 37.013L179.838 36.885H179.703V37.0712ZM173.096 37.0712V36.885H172.961L172.919 37.013L173.096 37.0712ZM171.886 40.75V40.9362H172.021L172.063 40.8082L171.886 40.75ZM174.137 33.8039L173.96 33.7461L173.88 33.99H174.137V33.8039ZM178.663 33.8039V33.99H178.919L178.84 33.7465L178.663 33.8039ZM175.904 25.2846V25.0984H175.648L175.726 25.3419L175.904 25.2846ZM176.92 25.2846L177.097 25.3424L177.177 25.0984H176.92V25.2846ZM167.996 40.8097L174.095 22.7788L173.743 22.6595L167.644 40.6903L167.996 40.8097ZM173.919 22.9053H178.905V22.5329H173.919V22.9053ZM178.728 22.7788L184.827 40.8097L185.18 40.6903L179.081 22.6595L178.728 22.7788ZM185.004 40.5638H180.914V40.9362H185.004V40.5638ZM181.09 40.6918L179.88 37.013L179.527 37.1294L180.737 40.8082L181.09 40.6918ZM179.703 36.885H173.096V37.2574H179.703V36.885ZM172.919 37.013L171.709 40.6918L172.063 40.8082L173.273 37.1294L172.919 37.013ZM171.886 40.5638H167.82V40.9362H171.886V40.5638ZM174.137 33.99H178.663V33.6177H174.137V33.99ZM178.84 33.7465L176.081 25.2272L175.726 25.3419L178.486 33.8612L178.84 33.7465ZM175.904 25.4708H176.92V25.0984H175.904V25.4708ZM176.743 25.2268L173.96 33.7461L174.314 33.8617L177.097 25.3424L176.743 25.2268ZM186.878 40.75H186.691V40.9362H186.878V40.75ZM186.878 22.7191V22.5329H186.691V22.7191H186.878ZM197.067 23.3726L196.989 23.5419L196.99 23.5424L197.067 23.3726ZM199.342 25.3088L199.185 25.4093L199.342 25.3088ZM199.318 31.6256L199.473 31.7282L199.474 31.7269L199.318 31.6256ZM197.043 33.5618L196.965 33.3926L196.78 33.4774L196.881 33.6543L197.043 33.5618ZM201.157 40.75V40.9362H201.478L201.319 40.6575L201.157 40.75ZM196.946 40.75L196.783 40.8409L196.837 40.9362H196.946V40.75ZM192.493 32.7874L192.587 32.627L191.994 32.2769L192.33 32.8782L192.493 32.7874ZM194.913 34.2153V34.4015H195.595L195.007 34.055L194.913 34.2153ZM190.629 34.2153V34.0291H190.443V34.2153H190.629ZM190.629 40.75V40.9362H190.815V40.75H190.629ZM190.629 30.948H190.443V31.1341H190.629V30.948ZM195.179 30.6333L195.268 30.797L195.179 30.6333ZM196.075 29.762L195.915 29.6652L195.912 29.6704L196.075 29.762ZM196.075 27.1724L195.912 27.264L195.915 27.2692L196.075 27.1724ZM195.179 26.3011L195.09 26.4648V26.4648L195.179 26.3011ZM190.629 25.9865V25.8003H190.443V25.9865H190.629ZM187.064 40.75V22.7191H186.691V40.75H187.064ZM186.878 22.9053H193.775V22.5329H186.878V22.9053ZM193.775 22.9053C194.996 22.9053 196.066 23.1192 196.989 23.5419L197.144 23.2033C196.164 22.7546 195.039 22.5329 193.775 22.5329V22.9053ZM196.99 23.5424C197.927 23.9639 198.657 24.5859 199.185 25.4093L199.499 25.2083C198.93 24.3213 198.143 23.6526 197.143 23.2028L196.99 23.5424ZM199.185 25.4093C199.71 26.228 199.979 27.2479 199.979 28.4793H200.351C200.351 27.1937 200.071 26.0999 199.499 25.2083L199.185 25.4093ZM199.979 28.4793C199.979 29.6763 199.703 30.6884 199.161 31.5244L199.474 31.7269C200.061 30.8203 200.351 29.7349 200.351 28.4793H199.979ZM199.162 31.5231C198.617 32.3485 197.886 32.9711 196.965 33.3926L197.12 33.7311C198.103 33.2813 198.889 32.6131 199.473 31.7282L199.162 31.5231ZM196.881 33.6543L200.995 40.8425L201.319 40.6575L197.204 33.4694L196.881 33.6543ZM201.157 40.5638H196.946V40.9362H201.157V40.5638ZM197.108 40.6591L192.655 32.6965L192.33 32.8782L196.783 40.8409L197.108 40.6591ZM192.398 32.9477L194.818 34.3757L195.007 34.055L192.587 32.627L192.398 32.9477ZM194.913 34.0291H190.629V34.4015H194.913V34.0291ZM190.443 34.2153V40.75H190.815V34.2153H190.443ZM190.629 40.5638H186.878V40.9362H190.629V40.5638ZM190.629 31.1341H193.799V30.7618H190.629V31.1341ZM193.799 31.1341C194.356 31.1341 194.848 31.0243 195.268 30.797L195.09 30.4696C194.735 30.6619 194.307 30.7618 193.799 30.7618V31.1341ZM195.268 30.797C195.685 30.5712 196.009 30.2563 196.237 29.8537L195.912 29.6704C195.72 30.0101 195.448 30.276 195.09 30.4696L195.268 30.797ZM196.234 29.8588C196.479 29.4553 196.6 28.9935 196.6 28.4793H196.227C196.227 28.9332 196.122 29.3266 195.915 29.6652L196.234 29.8588ZM196.6 28.4793C196.6 27.9502 196.48 27.48 196.234 27.0756L195.915 27.2692C196.121 27.6069 196.227 28.008 196.227 28.4793H196.6ZM196.237 27.0808C196.009 26.6782 195.685 26.3632 195.268 26.1374L195.09 26.4648C195.448 26.6585 195.72 26.9244 195.912 27.264L196.237 27.0808ZM195.268 26.1374C194.848 25.9101 194.356 25.8003 193.799 25.8003V26.1726C194.307 26.1726 194.735 26.2726 195.09 26.4648L195.268 26.1374ZM193.799 25.8003H190.629V26.1726H193.799V25.8003ZM190.443 25.9865V30.948H190.815V25.9865H190.443ZM203.02 40.75H202.834V40.9362H203.02V40.75ZM203.02 22.7191V22.5329H202.834V22.7191H203.02ZM215.146 22.7191H215.332V22.5329H215.146V22.7191ZM215.146 25.9865V26.1726H215.332V25.9865H215.146ZM206.772 25.9865V25.8003H206.586V25.9865H206.772ZM206.772 30.0767H206.586V30.2629H206.772V30.0767ZM214.662 30.0767H214.848V29.8905H214.662V30.0767ZM214.662 33.344V33.5302H214.848V33.344H214.662ZM206.772 33.344V33.1579H206.586V33.344H206.772ZM206.772 37.4827H206.586V37.6688H206.772V37.4827ZM215.146 37.4827H215.332V37.2965H215.146V37.4827ZM215.146 40.75V40.9362H215.332V40.75H215.146ZM203.207 40.75V22.7191H202.834V40.75H203.207ZM203.02 22.9053H215.146V22.5329H203.02V22.9053ZM214.96 22.7191V25.9865H215.332V22.7191H214.96ZM215.146 25.8003H206.772V26.1726H215.146V25.8003ZM206.586 25.9865V30.0767H206.958V25.9865H206.586ZM206.772 30.2629H214.662V29.8905H206.772V30.2629ZM214.476 30.0767V33.344H214.848V30.0767H214.476ZM214.662 33.1579H206.772V33.5302H214.662V33.1579ZM206.586 33.344V37.4827H206.958V33.344H206.586ZM206.772 37.6688H215.146V37.2965H206.772V37.6688ZM214.96 37.4827V40.75H215.332V37.4827H214.96ZM215.146 40.5638H203.02V40.9362H215.146V40.5638Z" fill="#20270C"/>
<defs>
<linearGradient id="paint0_linear_448_19" x1="27.5164" y1="1.51563" x2="27.5164" y2="44.4507" gradientUnits="userSpaceOnUse">
<stop stop-color="#718F2D"/>
<stop offset="1" stop-color="#20270C"/>
</linearGradient>
<linearGradient id="paint1_linear_448_19" x1="141.533" y1="0.25" x2="141.533" y2="18.2359" gradientUnits="userSpaceOnUse">
<stop stop-color="#718F2D"/>
<stop offset="1" stop-color="#20270C"/>
</linearGradient>
</defs>
</svg>
